# xmcd
#
# Track frame offsets: 
#        150
#        26268
#        44043
#        69237
#        88412
#        106559
#        124566
#        141023
#        161201
#        180858
#        200393
#        214671
#        230721
#        254146
#        276211
#        293911
#        311526
#
# Disc length: 4426 seconds
#
# Revision: 2
# Processed by: cddbd v1.5.1PL2 Copyright (c) Steve Scherf et al.
# Submitted via: ExactAudioCopy v0.95b2
#
DISCID=f7114811
DTITLE=B. B. King - Deuces Wild
DYEAR=1997
DGENRE=Blues
TTITLE0=If You Love Me
TTITLE1=The Thrill Is Gone
TTITLE2=Rock Me Baby
TTITLE3=Please Send Me Someone To Love
TTITLE4=Baby I Love You
TTITLE5=Ain't Nobody Home
TTITLE6=Pauly's Birthday Boogie
TTITLE7=There Must Be A Better World Somewhere
TTITLE8=Confessin' The Blues
TTITLE9=Hummingbird
TTITLE10=Bring It Home To Me
TTITLE11=Paying The Cost To The Boss
TTITLE12=Let The Good Times Roll
TTITLE13=Dangerous Mood
TTITLE14=Keep It Coming
TTITLE15=Cryin' Won't Help You Babe
TTITLE16=Night Life
EXTD=1997 MCA Records, Inc Universal City
EXTT0=with Van Morrison
EXTT1=with Tracy Chapman
EXTT2=with Eric Clapton
EXTT3=with Mick Hucknall
EXTT4=with Bonnie Raitt
EXTT5=with D'Angelo
EXTT6=with Jools Holland
EXTT7=with Dr. John
EXTT8=with Marty Stuart
EXTT9=with Dionne Warwick
EXTT10=with Paul Carrack
EXTT11=with The Rolling Stones
EXTT12=with Zucchero
EXTT13=with Joe Cocker
EXTT14=with Heavy D
EXTT15=with David Gilmour and Paul Carrack
EXTT16=with Willie Nelson
PLAYORDER=
